<svg width="18" height="18" viewBox="0 0 18 18" fill="none" xmlns="http://www.w3.org/2000/svg">
<g clip-path="url(#clip0_41_6186)">
<path d="M16.4883 8.16164C16.0743 8.16164 15.7384 7.82573 15.7384 7.41169C15.7384 5.30794 14.9193 3.33095 13.4321 1.84285C13.1389 1.54966 13.1389 1.07573 13.4321 0.782398C13.7253 0.489201 14.1993 0.489201 14.4925 0.782398C16.2634 2.55312 17.2383 4.90749 17.2383 7.41169C17.2383 7.82573 16.9024 8.16164 16.4883 8.16164Z" fill="#001846"/>
<path d="M1.48824 8.16164C1.07433 8.16164 0.738281 7.82573 0.738281 7.41169C0.738281 4.90749 1.71332 2.55312 3.48404 0.782398C3.77724 0.489201 4.2513 0.489201 4.54449 0.782398C4.83783 1.07573 4.83783 1.54966 4.54449 1.84285C3.05722 3.33013 2.23833 5.30794 2.23833 7.41169C2.23833 7.82573 1.90228 8.16164 1.48824 8.16164Z" fill="#001846"/>
<path d="M16.0226 12.6848C14.8886 11.7263 14.2383 10.3252 14.2383 8.84097V6.75C14.2383 4.11081 12.2778 1.92604 9.73833 1.56006V0.749954C9.73833 0.33522 9.40228 0 8.98837 0C8.57433 0 8.23828 0.33522 8.23828 0.749954V1.56006C5.6981 1.92604 3.73828 4.11081 3.73828 6.75V8.84097C3.73828 10.3252 3.08803 11.7263 1.94737 12.6907C1.65555 12.9405 1.48828 13.3035 1.48828 13.6875C1.48828 14.4113 2.07701 15 2.80087 15H15.1759C15.8996 15 16.4883 14.4113 16.4883 13.6875C16.4883 13.3035 16.3211 12.9405 16.0226 12.6848Z" fill="#001846"/>
<path d="M8.98842 18C10.3466 18 11.4829 17.0317 11.7439 15.75H6.23291C6.49384 17.0317 7.6301 18 8.98842 18Z" fill="#001846"/>
</g>
<defs>
<clipPath id="clip0_41_6186">
<rect width="18" height="18" fill="white"/>
</clipPath>
</defs>
</svg>
