<svg width="18" height="18" viewBox="0 0 18 18" fill="none" xmlns="http://www.w3.org/2000/svg">
<g clip-path="url(#clip0_196_4747)">
<path d="M6.68739 14.625C7.13494 14.625 7.56421 14.8027 7.88058 15.1192C8.19709 15.4357 8.37484 15.8649 8.37484 16.3124C8.37484 16.76 8.1971 17.1892 7.88058 17.5057C7.56421 17.8221 7.13494 18 6.68739 18C6.23983 18 5.81056 17.8221 5.49406 17.5057C5.17768 17.1892 4.9998 16.76 4.9998 16.3124C4.9998 15.8649 5.17767 15.4357 5.49406 15.1192C5.81057 14.8027 6.2398 14.625 6.68739 14.625ZM10.6249 16.3124H10.6247C10.6247 16.7599 10.8026 17.1892 11.119 17.5057C11.4355 17.8221 11.8647 18 12.3123 18C12.7599 18 13.1891 17.8221 13.5055 17.5057C13.822 17.1892 13.9998 16.76 13.9998 16.3124C13.9998 15.8648 13.822 15.4357 13.5055 15.1192C13.1891 14.8027 12.7599 14.6249 12.3123 14.6249C11.8648 14.6249 11.4355 14.8027 11.119 15.1192C10.8026 15.4357 10.6247 15.8648 10.6247 16.3124H10.6249ZM17.2191 2.81248C17.019 2.46587 16.6499 2.25179 16.2497 2.24995H4.95125L4.08491 0H0.5V2.24995H2.54005L5.35253 9.5624L12.5937 9.56253C12.8951 9.56253 13.1737 9.72327 13.3244 9.98433C13.475 10.2454 13.475 10.5671 13.3244 10.8282C13.1737 11.0892 12.8951 11.25 12.5937 11.25H3.31248V13.4999H12.5937C13.4072 13.5008 14.1881 13.1809 14.7671 12.6096C15.3462 12.0384 15.6766 11.2617 15.6867 10.4485C15.6969 9.63511 15.3859 8.8505 14.8211 8.26497L17.2343 3.92237C17.4248 3.57553 17.4192 3.15399 17.2192 2.81238L17.2191 2.81248Z" fill="#616161"/>
</g>
<defs>
<clipPath id="clip0_196_4747">
<rect width="18" height="18" fill="#616161"/>
</clipPath>
</defs>
</svg>
