<svg width="48" height="48" viewBox="0 0 48 48" fill="none" xmlns="http://www.w3.org/2000/svg">
<g clip-path="url(#clip0_41_13389)">
<path d="M42.0001 43.0002C42.0001 45.7615 39.7615 48.0001 37.0002 48.0001C34.2386 48.0001 32 45.7615 32 43.0002C32 40.2386 34.2386 38 37.0002 38C39.7615 38 42.0001 40.2386 42.0001 43.0002" fill="#3AB272"/>
<path d="M22.0006 43.0002C22.0006 45.7615 19.762 48.0001 17.0004 48.0001C14.2391 48.0001 12.0005 45.7615 12.0005 43.0002C12.0005 40.2386 14.2391 38 17.0004 38C19.762 38 22.0006 40.2386 22.0006 43.0002" fill="#3AB272"/>
<path d="M40.9998 36H17.9179C14.5918 36 11.706 33.6341 11.0541 30.374L6.18015 6.00037H1.00011C0.447993 6.00037 0 5.55237 0 5.00026C0 4.44847 0.447993 4.00049 1.00011 4.00049H7.00009C7.4762 4.00049 7.88603 4.33665 7.98014 4.80439L13.0158 29.9803C13.4819 32.3103 15.5421 34.0005 17.9179 34.0005H40.9998C41.5519 34.0005 41.9999 34.4485 41.9999 35.0006C41.9999 35.5524 41.5519 36.0003 40.9998 36.0003V36Z" fill="#3AB272"/>
<path d="M43.9443 22.5582C43.6463 22.3821 43.2803 22.3704 42.9743 22.5321C41.1044 23.5064 39.0944 24.0003 37.0005 24.0003C29.8327 24.0003 24.0088 18.5802 24.0182 11.2486C24.0182 11.2346 24.0283 11.0427 24.0303 11.0306C24.0383 10.7547 23.9322 10.4886 23.7383 10.2947C23.5421 10.0985 23.2723 9.99471 23.0001 10.0007H8.97039C8.67844 10.0088 8.40455 10.1467 8.2224 10.3747C8.03859 10.6007 7.96259 10.8967 8.0185 11.1847L11.0185 27.1849C11.1065 27.6587 11.5184 28.0008 12.0005 28.0008H39.4684C41.9843 28.0008 44.1184 26.1188 44.4284 23.6207C44.4344 23.5708 44.4344 23.4446 44.4344 23.3947C44.4264 23.0508 44.2403 22.7348 43.9443 22.5586L43.9443 22.5582Z" fill="#3AB272"/>
<path d="M37.0005 0C30.9346 0 26 4.93387 26 10.9997C26 17.0655 30.9339 21.9993 36.9997 21.9993C43.0659 21.9997 48.0002 17.0655 48.0002 10.9997C48.0002 4.93387 43.0663 0 37.0005 0V0ZM43.7083 7.70792L35.7085 15.7078C35.5126 15.902 35.2565 16.0001 35.0003 16.0001C34.7442 16.0001 34.4884 15.902 34.2922 15.7081L30.2921 11.708C29.902 11.3179 29.902 10.6842 30.2921 10.2941C30.6822 9.90401 31.3159 9.90401 31.706 10.2941L35.0004 13.586L42.2924 6.29398C42.6825 5.90391 43.3162 5.90391 43.7063 6.29398C44.0964 6.68404 44.0984 7.31586 43.7083 7.70792H43.7083Z" fill="#3AB272"/>
</g>
<defs>
<clipPath id="clip0_41_13389">
<rect width="48" height="48" fill="white"/>
</clipPath>
</defs>
</svg>
