<svg width="19" height="18" viewBox="0 0 19 18" fill="none" xmlns="http://www.w3.org/2000/svg">
<g clip-path="url(#clip0_44_6779)">
<path d="M8.56805 15.8289C8.56805 17.0126 7.60835 17.9723 6.42465 17.9723C5.24095 17.9723 4.28125 17.0126 4.28125 15.8289C4.28125 14.6452 5.24095 13.6855 6.42465 13.6855C7.60835 13.6855 8.56805 14.6452 8.56805 15.8289Z" fill="white"/>
<path d="M18.4219 4.848C18.347 4.74949 18.2288 4.69039 18.1067 4.69039H4.19438L3.9107 3.10255C3.73734 2.12933 2.96901 1.3571 1.99187 1.18768L0.963507 1.00644C0.750744 0.967035 0.54585 1.11282 0.50644 1.32558C0.46703 1.53835 0.612821 1.74324 0.825587 1.78265L1.85788 1.96389C2.50799 2.07816 3.02021 2.59038 3.13448 3.2405L4.52927 11.1088C4.69476 12.0504 5.51034 12.736 6.46777 12.736H14.742C15.6167 12.736 16.3732 12.1726 16.6293 11.3373L18.4812 5.19852C18.5206 5.07638 18.4969 4.94635 18.4221 4.84785L18.4219 4.848ZM11.9485 9.13876H10.9989V10.0883C10.9989 10.305 10.8216 10.4823 10.6049 10.4823C10.3882 10.4823 10.2109 10.305 10.2109 10.0883V9.13876H9.26131C9.04461 9.13876 8.86728 8.96145 8.86728 8.74473C8.86728 8.52801 9.04459 8.35071 9.26131 8.35071H10.2109V7.38146C10.2109 7.16476 10.3882 6.98743 10.6049 6.98743C10.8216 6.98743 10.9989 7.16474 10.9989 7.38146V8.35071H11.9485C12.1652 8.35071 12.3425 8.52801 12.3425 8.74473C12.3425 8.96145 12.1652 9.13876 11.9485 9.13876Z" fill="white"/>
<path d="M16.8422 15.8289C16.8422 17.0126 15.8825 17.9723 14.6988 17.9723C13.5151 17.9723 12.5554 17.0126 12.5554 15.8289C12.5554 14.6452 13.5151 13.6855 14.6988 13.6855C15.8825 13.6855 16.8422 14.6452 16.8422 15.8289Z" fill="white"/>
</g>
<defs>
<clipPath id="clip0_44_6779">
<rect width="18" height="18" fill="white" transform="translate(0.5)"/>
</clipPath>
</defs>
</svg>
