<svg width="18" height="18" viewBox="0 0 18 18" fill="none" xmlns="http://www.w3.org/2000/svg">
<g clip-path="url(#clip0_196_4662)">
<path d="M17.6977 7.6011L9.62169 0.242279C9.26721 -0.0807713 8.73267 -0.0807362 8.37833 0.242244L0.302275 7.60114C0.0183179 7.85989 -0.0754789 8.25856 0.0632476 8.61676C0.202009 8.97497 0.53986 9.2064 0.924012 9.2064H2.21389V16.5794C2.21389 16.8717 2.45092 17.1087 2.74324 17.1087H7.1699C7.46222 17.1087 7.69925 16.8718 7.69925 16.5794V12.1027H10.3009V16.5794C10.3009 16.8718 10.5379 17.1088 10.8302 17.1088H15.2567C15.549 17.1088 15.786 16.8718 15.786 16.5794V9.2064H17.0761C17.4603 9.2064 17.7982 8.97493 17.9369 8.61676C18.0755 8.25852 17.9817 7.85988 17.6977 7.6011Z" fill="#001846"/>
<path d="M15.6477 1.05664H12.0928L16.1771 4.7704V1.58595C16.1771 1.29363 15.9401 1.05664 15.6477 1.05664Z" fill="#001846"/>
</g>
<defs>
<clipPath id="clip0_196_4662">
<rect width="18" height="18" fill="white"/>
</clipPath>
</defs>
</svg>
