<svg width="18" height="18" viewBox="0 0 18 18" fill="none" xmlns="http://www.w3.org/2000/svg">
<mask id="path-1-inside-1_35_6121" fill="white">
<path d="M9.07486 16.9886L9.00294 17.0317L8.95976 17.0048C-4.67277 8.81194 0.00571889 0.905422 5.06594 1.00086C5.22786 1.00086 5.39167 1.01705 5.55359 1.03688C7.5905 1.2834 8.54955 2.41343 9.00301 3.38506C9.45463 2.41343 10.4156 1.2834 12.4524 1.04578C17.6688 0.403387 23.1015 8.53683 9.07499 16.9886L9.07486 16.9886Z"/>
</mask>
<path d="M9.07486 16.9886L9.53315 16.0998L9.03789 15.8444L8.56014 16.1312L9.07486 16.9886ZM9.00294 17.0317L8.47296 17.8798L8.99244 18.2044L9.51765 17.8891L9.00294 17.0317ZM8.95976 17.0048L9.48974 16.1568L9.48234 16.1521L9.47487 16.1476L8.95976 17.0048ZM5.06594 1.00086L5.04709 2.00068L5.05651 2.00086H5.06594V1.00086ZM5.55359 1.03688L5.43201 2.02946L5.43344 2.02963L5.55359 1.03688ZM9.00301 3.38506L8.09684 3.80797L9.00484 5.75357L9.90983 3.80656L9.00301 3.38506ZM12.4524 1.04578L12.5683 2.03906L12.5747 2.03828L12.4524 1.04578ZM9.07499 16.9886L8.6167 17.8774L9.11291 18.1333L9.59109 17.8452L9.07499 16.9886ZM8.56014 16.1312L8.48822 16.1744L9.51765 17.8891L9.58958 17.8459L8.56014 16.1312ZM9.53292 16.1837L9.48974 16.1568L8.42978 17.8528L8.47296 17.8798L9.53292 16.1837ZM9.47487 16.1476C2.76499 12.1152 0.922516 8.36565 1.00253 5.92751C1.08149 3.52142 3.02682 1.96258 5.04709 2.00068L5.0848 0.00103307C2.04484 -0.0562992 -0.879187 2.2904 -0.996395 5.86191C-1.11255 9.40138 1.52199 13.7015 8.44465 17.8619L9.47487 16.1476ZM5.06594 2.00086C5.16576 2.00086 5.28124 2.01099 5.43201 2.02946L5.67516 0.0442966C5.5021 0.0230994 5.28997 0.000855267 5.06594 0.000855267V2.00086ZM5.43344 2.02963C7.06818 2.22748 7.76222 3.09098 8.09684 3.80797L9.90918 2.96215C9.33689 1.73589 8.11281 0.339312 5.67373 0.044123L5.43344 2.02963ZM9.90983 3.80656C10.2421 3.09169 10.9359 2.22948 12.5683 2.03904L12.3366 0.0525158C9.89527 0.337318 8.66714 1.73518 8.09618 2.96355L9.90983 3.80656ZM12.5747 2.03828C14.6502 1.78268 16.7773 3.27702 16.9834 5.69193C17.1906 8.1197 15.4659 11.9702 8.55888 16.1321L9.59109 17.8452C16.7105 13.5553 19.2827 9.11314 18.9762 5.52183C18.6685 1.91767 15.471 -0.33351 12.3302 0.0532773L12.5747 2.03828ZM9.53327 16.0998L9.53315 16.0998L8.61657 17.8774L8.6167 17.8774L9.53327 16.0998Z" fill="#001846" mask="url(#path-1-inside-1_35_6121)"/>
</svg>
