<svg width="18" height="18" viewBox="0 0 18 18" fill="none" xmlns="http://www.w3.org/2000/svg">
<path d="M16.3435 2H1.65646C0.743098 2 0 2.74306 0 3.65758C0 4.57094 0.743098 5.31404 1.65646 5.31404H16.3435C17.2569 5.31404 18 4.57094 18 3.65758C18 2.74306 17.2569 2 16.3435 2Z" fill="#616161"/>
<path d="M16.3435 7.08398H1.65646C0.743098 7.08398 0 7.82705 0 8.74157C0 9.65493 0.743098 10.398 1.65646 10.398H16.3435C17.2569 10.398 18 9.65493 18 8.74157C18 7.82705 17.2569 7.08398 16.3435 7.08398Z" fill="#616161"/>
<path d="M16.3435 12.168H1.65646C0.743098 12.168 0 12.9111 0 13.8256C0 14.7389 0.743098 15.482 1.65646 15.482H16.3435C17.2569 15.482 18 14.7389 18 13.8256C18 12.9111 17.2569 12.168 16.3435 12.168Z" fill="#616161"/>
</svg>
