<svg width="14" height="14" viewBox="0 0 14 14" fill="none" xmlns="http://www.w3.org/2000/svg">
<g clip-path="url(#clip0_280_6401)">
<path fill-rule="evenodd" clip-rule="evenodd" d="M0 7.93628V6.04589C0 5.56435 0.392392 5.17198 0.891736 5.17198H5.17198V0.891736C5.17198 0.392392 5.56437 0 6.04589 0H7.93628C8.43563 0 8.82802 0.392392 8.82802 0.891736V5.17198H13.1083C13.5898 5.17198 14 5.56437 14 6.04589V7.93628C14 8.43563 13.5898 8.82802 13.1083 8.82802H8.82802V13.1083C8.82802 13.5898 8.43563 14 7.93628 14H6.04589C5.56435 14 5.17198 13.5898 5.17198 13.1083V8.82802H0.891736C0.392392 8.82802 0 8.43563 0 7.93628V7.93628Z" fill="#001846"/>
</g>
<defs>
<clipPath id="clip0_280_6401">
<rect width="14" height="14" fill="white"/>
</clipPath>
</defs>
</svg>
