<svg width="18" height="18" viewBox="0 0 18 18" fill="none" xmlns="http://www.w3.org/2000/svg">
<path d="M14.0861 4.98707L13.6145 16.304C13.6053 16.5254 13.4084 16.7137 13.1856 16.7137H4.9571C4.73432 16.7137 4.53738 16.5248 4.52823 16.304L4.05665 4.98707C4.04177 4.63246 3.74222 4.35675 3.38763 4.37167C3.03284 4.38638 2.75731 4.68593 2.77205 5.0407L3.24363 16.3577C3.28147 17.2673 4.04522 17.9996 4.95711 17.9996H13.1856C14.097 17.9996 14.8613 17.2685 14.8991 16.3577L15.3707 5.0407C15.3854 4.68591 15.1099 4.38637 14.7551 4.37167C14.4005 4.35678 14.101 4.63247 14.0861 4.98707H14.0861Z" fill="white"/>
<path d="M8.55713 6.04268V14.7855C8.55713 15.0696 8.78726 15.2997 9.07137 15.2997C9.35547 15.2997 9.5856 15.0696 9.5856 14.7855V6.04268C9.5856 5.75856 9.35547 5.52844 9.07137 5.52844C8.78726 5.52844 8.55713 5.75857 8.55713 6.04268Z" fill="white"/>
<path d="M5.72849 6.05779L5.98571 14.8006C5.99414 15.0845 6.2309 15.308 6.51482 15.2996C6.79876 15.2913 7.02226 15.0544 7.01381 14.7705L6.7566 6.02767C6.74835 5.74373 6.51141 5.52023 6.22748 5.52867C5.94355 5.53693 5.72023 5.77387 5.72849 6.05779Z" fill="white"/>
<path d="M11.3861 6.02754L11.1289 14.7703C11.1205 15.0543 11.344 15.2912 11.6279 15.2995C11.9118 15.3079 12.1486 15.0844 12.157 14.8005L12.4142 6.05767C12.4225 5.77373 12.1992 5.53677 11.9152 5.52855C11.6313 5.52012 11.3943 5.74361 11.3861 6.02754Z" fill="white"/>
<path d="M2.64285 3.47125H15.4999C15.8549 3.47125 16.1428 3.18337 16.1428 2.8284C16.1428 2.47325 15.8549 2.18555 15.4999 2.18555H2.64285C2.28788 2.18555 2 2.47325 2 2.8284C2 3.18337 2.28788 3.47125 2.64285 3.47125Z" fill="white"/>
<path d="M7.11804 2.61946L7.38566 1.68264C7.44306 1.48193 7.70314 1.2857 7.91211 1.2857H10.2306C10.4396 1.2857 10.6997 1.48175 10.7571 1.68264L11.0247 2.61946L12.2609 2.26629L11.9933 1.32928C11.778 0.576456 11.0136 0 10.2306 0H7.91211C7.12916 0 6.36453 0.576685 6.14945 1.32928L5.88184 2.26629L7.11804 2.61946Z" fill="white"/>
</svg>
