<svg width="68" height="68" viewBox="0 0 68 68" fill="none" xmlns="http://www.w3.org/2000/svg">
<path d="M7.56283 9.22583H58.0073V65.7735H7.56283C5.55704 65.7735 3.63341 64.9767 2.2151 63.5584C0.796796 62.1401 0 60.2165 0 58.2107V16.7887C0 14.7829 0.796796 12.8592 2.2151 11.4409C3.63341 10.0226 5.55704 9.22583 7.56283 9.22583Z" fill="#023F87"/>
<path d="M6.33383 21.896H58.0075V20.6668H6.12612C5.12957 20.6295 4.15541 20.3607 3.28081 19.8815L3.16984 19.8189C2.2878 19.2499 1.54802 18.6808 1.00741 17.7504L0.574921 16.9594L0.00585938 15.5652C0.00661266 17.2435 0.673458 18.8529 1.85994 20.0399C3.04642 21.2269 4.65551 21.8945 6.33383 21.896Z" fill="#001846"/>
<path d="M3.34912 26.1128L27.2355 2.22644L51.1219 26.1128H3.34912Z" fill="#78AA17"/>
<path d="M10.7925 26.1128L34.6788 2.22644L58.5652 26.1128H10.7925Z" fill="#8ACC19"/>
<path d="M16.5713 26.1129L30.7978 11.8863C31.0963 11.5885 31.4877 11.4019 31.907 11.3574C32.3263 11.3129 32.7482 11.4132 33.1025 11.6416C33.5863 11.9551 34.1421 12.1397 34.7172 12.1781C35.2924 12.2164 35.8678 12.1072 36.3889 11.8607L36.6734 11.7241C37.0167 11.5617 37.4019 11.5098 37.776 11.5755C38.1501 11.6412 38.4945 11.8214 38.7619 12.0912L52.775 26.1129H16.5713Z" fill="#78A017"/>
<path d="M58.0103 21.8903H6.12612C5.12957 21.853 4.15541 21.5842 3.28081 21.105L3.16984 21.0424C2.2878 20.4734 1.54802 19.9043 1.00741 18.9739L0.574921 18.1829L0.00585938 16.7887V59.8923C0.00585938 63.1331 3.74175 65.7622 8.35115 65.7622H64.0082V21.8903H58.0103Z" fill="#0466C8"/>
<path d="M52.6751 36.703H65.1945C65.9385 36.703 66.6521 36.9986 67.1783 37.5247C67.7044 38.0509 68 38.7645 68 39.5085V48.5594C68 49.3035 67.7044 50.0171 67.1783 50.5432C66.6521 51.0693 65.9385 51.3649 65.1945 51.3649H52.6751C50.7305 51.3649 48.8655 50.5924 47.4904 49.2173C46.1153 47.8422 45.3428 45.9772 45.3428 44.0326C45.3428 42.0879 46.1153 40.2229 47.4904 38.8478C48.8655 37.4727 50.7305 36.7002 52.6751 36.7002V36.703Z" fill="#001846"/>
<path d="M54.2318 47.4982C56.2715 47.4982 57.925 45.8447 57.925 43.805C57.925 41.7653 56.2715 40.1118 54.2318 40.1118C52.1921 40.1118 50.5386 41.7653 50.5386 43.805C50.5386 45.8447 52.1921 47.4982 54.2318 47.4982Z" fill="#F5AF2D"/>
</svg>
